G04 ================== begin FILE IDENTIFICATION RECORD ==================*
G04 Layout Name:  P1_STAB_TENS.brd*
G04 Film Name:    SSTOP*
G04 File Format:  Gerber RS274X*
G04 File Origin:  Cadence Allegro 16.6-2015-S059*
G04 Origin Date:  Tue Dec 03 23:12:03 2024*
G04 *
G04 Layer:  REF DES/SILKSCREEN_TOP*
G04 Layer:  PACKAGE GEOMETRY/SILKSCREEN_TOP*
G04 Layer:  BOARD GEOMETRY/SILKSCREEN_TOP*
G04 *
G04 Offset:    (0.00 0.00)*
G04 Mirror:    No*
G04 Mode:      Positive*
G04 Rotation:  0*
G04 FullContactRelief:  No*
G04 UndefLineWidth:     0.00*
G04 ================== end FILE IDENTIFICATION RECORD ====================*
%FSLAX25Y25*MOIN*%
%IR0*IPPOS*OFA0.00000B0.00000*MIA0B0*SFA1.00000B1.00000*%
%ADD10C,.006*%
%ADD11C,.007*%
%ADD12C,.00787*%
G75*
%LPD*%
G75*
G54D10*
G01X16250Y47200D02*
Y31200D01*
G01D02*
X8750D01*
G01D02*
Y47200D01*
G01D02*
X16250D01*
G01X38750Y44700D02*
Y28700D01*
G01D02*
X31250D01*
G01D02*
Y44700D01*
G01D02*
X38750D01*
G01X47200Y123750D02*
X31200D01*
G01D02*
Y131250D01*
G01X47200D02*
Y123750D01*
G01X46250Y132800D02*
Y148800D01*
G01D02*
X53750D01*
G01Y132800D02*
X46250D01*
G01X28750D02*
Y148800D01*
G01D02*
X36250D01*
G01D02*
Y132800D01*
G01D02*
X28750D01*
G01X31200Y131250D02*
X47200D01*
G01X81250Y26200D02*
X73750D01*
G01D02*
Y42200D01*
G01D02*
X81250D01*
G01X53750Y148800D02*
Y132800D01*
G01X68750Y149700D02*
Y133700D01*
G01D02*
X61250D01*
G01D02*
Y149700D01*
G01D02*
X68750D01*
G01X81250Y133700D02*
X73750D01*
G01D02*
Y149700D01*
G01D02*
X81250D01*
G01Y42200D02*
Y26200D01*
G01Y149700D02*
Y133700D01*
G01X126250Y54700D02*
Y38700D01*
G01D02*
X118750D01*
G01D02*
Y54700D01*
G01X111250Y17800D02*
Y33800D01*
G01D02*
X118750D01*
G01D02*
Y17800D01*
G01D02*
X111250D01*
G01X118750Y54700D02*
X126250D01*
G01X149700Y41250D02*
X133700D01*
G01D02*
Y48750D01*
G01D02*
X149700D01*
G01X146300Y93750D02*
X130300D01*
G01D02*
Y101250D01*
G01Y86250D02*
X146300D01*
G01Y78750D02*
X130300D01*
G01D02*
Y86250D01*
G01Y128750D02*
X146300D01*
G01Y121250D02*
X130300D01*
G01D02*
Y128750D01*
G01X147200Y108750D02*
X131200D01*
G01D02*
Y116250D01*
G01D02*
X147200D01*
G01X130300Y101250D02*
X146300D01*
G01X110300Y116250D02*
X126300D01*
G01D02*
Y108750D01*
G01D02*
X110300D01*
G01D02*
Y116250D01*
G01Y128750D02*
X126300D01*
G01D02*
Y121250D01*
G01D02*
X110300D01*
G01D02*
Y128750D01*
G01X128750Y149700D02*
Y133700D01*
G01D02*
X121250D01*
G01D02*
Y149700D01*
G01D02*
X128750D01*
G01X149700Y48750D02*
Y41250D01*
G01X146300Y101250D02*
Y93750D01*
G01Y86250D02*
Y78750D01*
G01Y128750D02*
Y121250D01*
G01X147200Y116250D02*
Y108750D01*
G01X143750Y132800D02*
Y148800D01*
G01D02*
X151250D01*
G01D02*
Y132800D01*
G01D02*
X143750D01*
G54D11*
G01X7833Y7500D02*
Y10500D01*
X8633D01*
X8900Y10350D01*
X9100Y10000D01*
X9167Y9600D01*
X9100Y9200D01*
X8933Y8900D01*
X8633Y8750D01*
X7833D01*
G01X10433Y10500D02*
Y7500D01*
X11767D01*
G01X12867D02*
X13700Y10500D01*
X14533Y7500D01*
G01X14233Y8550D02*
X13167D01*
G01X15433Y7500D02*
Y10500D01*
X16300Y8000D01*
X17167Y10500D01*
Y7500D01*
G01X18067D02*
X18900Y10500D01*
X19733Y7500D01*
G01X19433Y8550D02*
X18367D01*
G01X20767Y7500D02*
Y10500D01*
X21433D01*
X21700Y10350D01*
X21900Y10150D01*
X22067Y9850D01*
X22200Y9500D01*
X22233Y9000D01*
X22200Y8500D01*
X22067Y8150D01*
X21900Y7850D01*
X21700Y7650D01*
X21433Y7500D01*
X20767D01*
G01X24767D02*
X23433D01*
Y10500D01*
X24767D01*
G01X24233Y9050D02*
X23433D01*
G01X25867Y7500D02*
X26700Y10500D01*
X27533Y7500D01*
G01X27233Y8550D02*
X26167D01*
G01X28633Y10500D02*
Y7500D01*
X29967D01*
G01X31067D02*
X31900Y10500D01*
X32733Y7500D01*
G01X32433Y8550D02*
X31367D01*
G01X37833Y10250D02*
X37633Y10400D01*
X37400Y10500D01*
X37133D01*
X36833Y10350D01*
X36600Y10100D01*
X36433Y9800D01*
X36300Y9300D01*
X36267Y8850D01*
X36333Y8400D01*
X36433Y8100D01*
X36633Y7800D01*
X36867Y7600D01*
X37100Y7500D01*
X37333D01*
X37567Y7600D01*
X37767Y7750D01*
X37933Y7950D01*
G01X38867Y7500D02*
X39700Y10500D01*
X40533Y7500D01*
G01X40233Y8550D02*
X39167D01*
G01X42300Y10500D02*
Y7500D01*
G01X41533Y10500D02*
X43067D01*
G01X44067Y7500D02*
X44900Y10500D01*
X45733Y7500D01*
G01X45433Y8550D02*
X44367D01*
G01X46833Y7500D02*
Y10500D01*
X47667D01*
X47933Y10350D01*
X48100Y10150D01*
X48167Y9750D01*
X48100Y9350D01*
X47900Y9100D01*
X47667Y8950D01*
X46833D01*
G01X47667D02*
X48167Y7500D01*
G01X49700Y10500D02*
X50500D01*
G01X50100D02*
Y7500D01*
G01X49700D02*
X50500D01*
G01X51933D02*
Y10500D01*
X53467Y7500D01*
Y10500D01*
G01X54467Y7500D02*
X55300Y10500D01*
X56133Y7500D01*
G01X55833Y8550D02*
X54767D01*
G01X60900Y7500D02*
Y10500D01*
X59667Y8350D01*
X61333D01*
G01X62367Y8100D02*
X62567Y7750D01*
X62833Y7550D01*
X63133Y7500D01*
X63400Y7550D01*
X63667Y7800D01*
X63833Y8100D01*
X63867Y8400D01*
X63800Y8750D01*
X63567Y9000D01*
X63333Y9100D01*
X63033D01*
G01X63333D02*
X63533Y9250D01*
X63700Y9500D01*
X63767Y9800D01*
X63700Y10100D01*
X63533Y10350D01*
X63233Y10500D01*
X62933Y10450D01*
X62633Y10250D01*
G01X65067Y10000D02*
X65267Y10300D01*
X65500Y10450D01*
X65767Y10500D01*
X66100Y10400D01*
X66333Y10150D01*
X66400Y9850D01*
X66367Y9550D01*
X66233Y9300D01*
X65567Y8800D01*
X65267Y8450D01*
X65067Y7950D01*
X65000Y7500D01*
X66400D01*
G01X68967D02*
X67633D01*
Y10500D01*
X68967D01*
G01X68433Y9050D02*
X67633D01*
G01X10333Y25000D02*
Y28000D01*
X11167D01*
X11433Y27850D01*
X11600Y27650D01*
X11667Y27250D01*
X11600Y26850D01*
X11400Y26600D01*
X11167Y26450D01*
X10333D01*
G01X11167D02*
X11667Y25000D01*
G01X12967Y27500D02*
X13167Y27800D01*
X13400Y27950D01*
X13667Y28000D01*
X14000Y27900D01*
X14233Y27650D01*
X14300Y27350D01*
X14267Y27050D01*
X14133Y26800D01*
X13467Y26300D01*
X13167Y25950D01*
X12967Y25450D01*
X12900Y25000D01*
X14300D01*
G01X9233Y15250D02*
X9033Y15400D01*
X8800Y15500D01*
X8533D01*
X8233Y15350D01*
X8000Y15100D01*
X7833Y14800D01*
X7700Y14300D01*
X7667Y13850D01*
X7733Y13400D01*
X7833Y13100D01*
X8033Y12800D01*
X8267Y12600D01*
X8500Y12500D01*
X8733D01*
X8967Y12600D01*
X9167Y12750D01*
X9333Y12950D01*
G01X11767Y12500D02*
X10433D01*
Y15500D01*
X11767D01*
G01X11233Y14050D02*
X10433D01*
G01X13067Y12500D02*
Y15500D01*
X14333D01*
G01X13867Y14050D02*
X13067D01*
G01X15667Y15000D02*
X15867Y15300D01*
X16100Y15450D01*
X16367Y15500D01*
X16700Y15400D01*
X16933Y15150D01*
X17000Y14850D01*
X16967Y14550D01*
X16833Y14300D01*
X16167Y13800D01*
X15867Y13450D01*
X15667Y12950D01*
X15600Y12500D01*
X17000D01*
G01X18467Y13500D02*
X19333D01*
G01X20833Y12500D02*
Y15500D01*
X21633D01*
X21900Y15350D01*
X22100Y15000D01*
X22167Y14600D01*
X22100Y14200D01*
X21933Y13900D01*
X21633Y13750D01*
X20833D01*
G01X26067Y15000D02*
X26267Y15300D01*
X26500Y15450D01*
X26767Y15500D01*
X27100Y15400D01*
X27333Y15150D01*
X27400Y14850D01*
X27367Y14550D01*
X27233Y14300D01*
X26567Y13800D01*
X26267Y13450D01*
X26067Y12950D01*
X26000Y12500D01*
X27400D01*
G01X29300Y15500D02*
X29033Y15400D01*
X28833Y15150D01*
X28700Y14850D01*
X28600Y14450D01*
X28567Y14000D01*
X28600Y13550D01*
X28700Y13150D01*
X28833Y12850D01*
X29033Y12600D01*
X29300Y12500D01*
X29567Y12600D01*
X29767Y12850D01*
X29900Y13150D01*
X30000Y13550D01*
X30033Y14000D01*
X30000Y14450D01*
X29900Y14850D01*
X29767Y15150D01*
X29567Y15400D01*
X29300Y15500D01*
G01X31267Y15000D02*
X31467Y15300D01*
X31700Y15450D01*
X31967Y15500D01*
X32300Y15400D01*
X32533Y15150D01*
X32600Y14850D01*
X32567Y14550D01*
X32433Y14300D01*
X31767Y13800D01*
X31467Y13450D01*
X31267Y12950D01*
X31200Y12500D01*
X32600D01*
G01X34900D02*
Y15500D01*
X33667Y13350D01*
X35333D01*
G01X36667Y13500D02*
X37533D01*
G01X39067Y15000D02*
X39267Y15300D01*
X39500Y15450D01*
X39767Y15500D01*
X40100Y15400D01*
X40333Y15150D01*
X40400Y14850D01*
X40367Y14550D01*
X40233Y14300D01*
X39567Y13800D01*
X39267Y13450D01*
X39067Y12950D01*
X39000Y12500D01*
X40400D01*
G01X42300Y15500D02*
X42033Y15400D01*
X41833Y15150D01*
X41700Y14850D01*
X41600Y14450D01*
X41567Y14000D01*
X41600Y13550D01*
X41700Y13150D01*
X41833Y12850D01*
X42033Y12600D01*
X42300Y12500D01*
X42567Y12600D01*
X42767Y12850D01*
X42900Y13150D01*
X43000Y13550D01*
X43033Y14000D01*
X43000Y14450D01*
X42900Y14850D01*
X42767Y15150D01*
X42567Y15400D01*
X42300Y15500D01*
G01X44267Y15000D02*
X44467Y15300D01*
X44700Y15450D01*
X44967Y15500D01*
X45300Y15400D01*
X45533Y15150D01*
X45600Y14850D01*
X45567Y14550D01*
X45433Y14300D01*
X44767Y13800D01*
X44467Y13450D01*
X44267Y12950D01*
X44200Y12500D01*
X45600D01*
G01X46767Y12950D02*
X46967Y12700D01*
X47200Y12550D01*
X47500Y12500D01*
X47800Y12600D01*
X48033Y12800D01*
X48200Y13150D01*
X48233Y13550D01*
X48167Y13950D01*
X48000Y14200D01*
X47767Y14400D01*
X47533Y14450D01*
X47300Y14400D01*
X47000Y14200D01*
X47100Y15500D01*
X48000D01*
G01X11500Y56500D02*
Y55000D01*
X20500D01*
Y60500D01*
G01X11500Y62500D02*
Y64500D01*
G01Y86500D02*
Y85000D01*
X20500D01*
Y90500D01*
G01X11500Y92500D02*
Y94500D01*
G01X13500Y75000D02*
X13233Y75050D01*
X13000Y75250D01*
X12800Y75550D01*
X12667Y75900D01*
X12600Y76300D01*
Y76700D01*
X12667Y77100D01*
X12800Y77450D01*
X13000Y77750D01*
X13233Y77950D01*
X13500Y78000D01*
X13767Y77950D01*
X14000Y77750D01*
X14200Y77450D01*
X14333Y77100D01*
X14400Y76700D01*
Y76300D01*
X14333Y75900D01*
X14200Y75550D01*
X14000Y75250D01*
X13767Y75050D01*
X13500Y75000D01*
G01X13767Y75800D02*
X14167Y75000D01*
G01X15467Y77500D02*
X15667Y77800D01*
X15900Y77950D01*
X16167Y78000D01*
X16500Y77900D01*
X16733Y77650D01*
X16800Y77350D01*
X16767Y77050D01*
X16633Y76800D01*
X15967Y76300D01*
X15667Y75950D01*
X15467Y75450D01*
X15400Y75000D01*
X16800D01*
G01X11500Y70500D02*
Y72000D01*
X20500D01*
Y66500D01*
G01X11667Y133000D02*
X12933D01*
X11667Y130000D01*
X12933D01*
G01X15567D02*
X14233D01*
Y133000D01*
X15567D01*
G01X15033Y131550D02*
X14233D01*
G01X16733Y130000D02*
Y133000D01*
X18267Y130000D01*
Y133000D01*
G01X20767Y130000D02*
X19433D01*
Y133000D01*
X20767D01*
G01X20233Y131550D02*
X19433D01*
G01X22033Y130000D02*
Y133000D01*
X22867D01*
X23133Y132850D01*
X23300Y132650D01*
X23367Y132250D01*
X23300Y131850D01*
X23100Y131600D01*
X22867Y131450D01*
X22033D01*
G01X22867D02*
X23367Y130000D01*
G01X11500Y100500D02*
Y102000D01*
X20500D01*
Y96500D01*
G01X5267Y125000D02*
Y128000D01*
X5933D01*
X6200Y127850D01*
X6400Y127650D01*
X6567Y127350D01*
X6700Y127000D01*
X6733Y126500D01*
X6700Y126000D01*
X6567Y125650D01*
X6400Y125350D01*
X6200Y125150D01*
X5933Y125000D01*
X5267D01*
G01X8600D02*
Y128000D01*
X8200Y127400D01*
G01Y125000D02*
X9000D01*
G01X21000Y126000D02*
Y127500D01*
X12000D01*
Y122000D01*
G01X21000Y112000D02*
Y110500D01*
X12000D01*
Y116000D01*
G01X12500Y148000D02*
Y136500D01*
X22500D01*
Y148500D01*
X12500D01*
Y148000D01*
G01X43967Y32500D02*
Y35500D01*
X44633D01*
X44900Y35350D01*
X45100Y35150D01*
X45267Y34850D01*
X45400Y34500D01*
X45433Y34000D01*
X45400Y33500D01*
X45267Y33150D01*
X45100Y32850D01*
X44900Y32650D01*
X44633Y32500D01*
X43967D01*
G01X46900Y35500D02*
X47700D01*
G01X47300D02*
Y32500D01*
G01X46900D02*
X47700D01*
G01X49267D02*
Y35500D01*
X50533D01*
G01X50067Y34050D02*
X49267D01*
G01X51867Y32500D02*
Y35500D01*
X53133D01*
G01X52667Y34050D02*
X51867D01*
G01X55100Y32500D02*
X54833Y32550D01*
X54600Y32750D01*
X54400Y33050D01*
X54267Y33400D01*
X54200Y33800D01*
Y34200D01*
X54267Y34600D01*
X54400Y34950D01*
X54600Y35250D01*
X54833Y35450D01*
X55100Y35500D01*
X55367Y35450D01*
X55600Y35250D01*
X55800Y34950D01*
X55933Y34600D01*
X56000Y34200D01*
Y33800D01*
X55933Y33400D01*
X55800Y33050D01*
X55600Y32750D01*
X55367Y32550D01*
X55100Y32500D01*
G01X56967Y35500D02*
Y33350D01*
X57100Y32900D01*
X57367Y32600D01*
X57700Y32500D01*
X58033Y32600D01*
X58300Y32900D01*
X58433Y33350D01*
Y35500D01*
G01X60300D02*
Y32500D01*
G01X59533Y35500D02*
X61067D01*
G01X42500Y28000D02*
Y16500D01*
X52500D01*
Y28500D01*
X42500D01*
Y28000D01*
G01X25333Y40000D02*
Y43000D01*
X26167D01*
X26433Y42850D01*
X26600Y42650D01*
X26667Y42250D01*
X26600Y41850D01*
X26400Y41600D01*
X26167Y41450D01*
X25333D01*
G01X26167D02*
X26667Y40000D01*
G01X27867Y40600D02*
X28067Y40250D01*
X28333Y40050D01*
X28633Y40000D01*
X28900Y40050D01*
X29167Y40300D01*
X29333Y40600D01*
X29367Y40900D01*
X29300Y41250D01*
X29067Y41500D01*
X28833Y41600D01*
X28533D01*
G01X28833D02*
X29033Y41750D01*
X29200Y42000D01*
X29267Y42300D01*
X29200Y42600D01*
X29033Y42850D01*
X28733Y43000D01*
X28433Y42950D01*
X28133Y42750D01*
G01X26000Y52500D02*
X25733Y52550D01*
X25500Y52750D01*
X25300Y53050D01*
X25167Y53400D01*
X25100Y53800D01*
Y54200D01*
X25167Y54600D01*
X25300Y54950D01*
X25500Y55250D01*
X25733Y55450D01*
X26000Y55500D01*
X26267Y55450D01*
X26500Y55250D01*
X26700Y54950D01*
X26833Y54600D01*
X26900Y54200D01*
Y53800D01*
X26833Y53400D01*
X26700Y53050D01*
X26500Y52750D01*
X26267Y52550D01*
X26000Y52500D01*
G01X26267Y53300D02*
X26667Y52500D01*
G01X27867Y53100D02*
X28067Y52750D01*
X28333Y52550D01*
X28633Y52500D01*
X28900Y52550D01*
X29167Y52800D01*
X29333Y53100D01*
X29367Y53400D01*
X29300Y53750D01*
X29067Y54000D01*
X28833Y54100D01*
X28533D01*
G01X28833D02*
X29033Y54250D01*
X29200Y54500D01*
X29267Y54800D01*
X29200Y55100D01*
X29033Y55350D01*
X28733Y55500D01*
X28433Y55450D01*
X28133Y55250D01*
G01X34000Y49000D02*
Y47500D01*
X43000D01*
Y53000D01*
G01X34000Y63000D02*
Y64500D01*
X43000D01*
Y59000D01*
G01X34000Y55000D02*
Y57000D01*
G01X51500Y58500D02*
X50000D01*
Y49500D01*
X55500D01*
G01X23500Y82500D02*
X23233Y82550D01*
X23000Y82750D01*
X22800Y83050D01*
X22667Y83400D01*
X22600Y83800D01*
Y84200D01*
X22667Y84600D01*
X22800Y84950D01*
X23000Y85250D01*
X23233Y85450D01*
X23500Y85500D01*
X23767Y85450D01*
X24000Y85250D01*
X24200Y84950D01*
X24333Y84600D01*
X24400Y84200D01*
Y83800D01*
X24333Y83400D01*
X24200Y83050D01*
X24000Y82750D01*
X23767Y82550D01*
X23500Y82500D01*
G01X23767Y83300D02*
X24167Y82500D01*
G01X26100D02*
Y85500D01*
X25700Y84900D01*
G01Y82500D02*
X26500D01*
G01X26000Y75000D02*
X25733Y75050D01*
X25500Y75250D01*
X25300Y75550D01*
X25167Y75900D01*
X25100Y76300D01*
Y76700D01*
X25167Y77100D01*
X25300Y77450D01*
X25500Y77750D01*
X25733Y77950D01*
X26000Y78000D01*
X26267Y77950D01*
X26500Y77750D01*
X26700Y77450D01*
X26833Y77100D01*
X26900Y76700D01*
Y76300D01*
X26833Y75900D01*
X26700Y75550D01*
X26500Y75250D01*
X26267Y75050D01*
X26000Y75000D01*
G01X26267Y75800D02*
X26667Y75000D01*
G01X29000D02*
Y78000D01*
X27767Y75850D01*
X29433D01*
G01X34000Y76500D02*
Y75000D01*
X43000D01*
Y80500D01*
G01X34000Y90500D02*
Y92000D01*
X43000D01*
Y86500D01*
G01X34000Y82500D02*
Y84500D01*
G01X50333Y127500D02*
Y130500D01*
X51167D01*
X51433Y130350D01*
X51600Y130150D01*
X51667Y129750D01*
X51600Y129350D01*
X51400Y129100D01*
X51167Y128950D01*
X50333D01*
G01X51167D02*
X51667Y127500D01*
G01X52967Y130500D02*
X54233D01*
X52967Y127500D01*
X54233D01*
G01X25333D02*
Y130500D01*
X26167D01*
X26433Y130350D01*
X26600Y130150D01*
X26667Y129750D01*
X26600Y129350D01*
X26400Y129100D01*
X26167Y128950D01*
X25333D01*
G01X26167D02*
X26667Y127500D01*
G01X28600D02*
Y130500D01*
X28200Y129900D01*
G01Y127500D02*
X29000D01*
G01X21000Y120000D02*
Y118000D01*
G01X51000Y105000D02*
X50733Y105050D01*
X50500Y105250D01*
X50300Y105550D01*
X50167Y105900D01*
X50100Y106300D01*
Y106700D01*
X50167Y107100D01*
X50300Y107450D01*
X50500Y107750D01*
X50733Y107950D01*
X51000Y108000D01*
X51267Y107950D01*
X51500Y107750D01*
X51700Y107450D01*
X51833Y107100D01*
X51900Y106700D01*
Y106300D01*
X51833Y105900D01*
X51700Y105550D01*
X51500Y105250D01*
X51267Y105050D01*
X51000Y105000D01*
G01X51267Y105800D02*
X51667Y105000D01*
G01X52967Y106250D02*
X53200Y106600D01*
X53400Y106800D01*
X53667Y106900D01*
X53900Y106800D01*
X54067Y106600D01*
X54200Y106300D01*
X54233Y105950D01*
X54200Y105650D01*
X54067Y105350D01*
X53867Y105100D01*
X53633Y105000D01*
X53367Y105100D01*
X53133Y105400D01*
X53000Y105850D01*
X52967Y106350D01*
X53033Y107000D01*
X53133Y107350D01*
X53300Y107700D01*
X53533Y107950D01*
X53767Y108000D01*
X54000Y107900D01*
X54167Y107650D01*
G01X51500Y121000D02*
X50000D01*
Y112000D01*
X55500D01*
G01X43500Y117500D02*
X43233Y117550D01*
X43000Y117750D01*
X42800Y118050D01*
X42667Y118400D01*
X42600Y118800D01*
Y119200D01*
X42667Y119600D01*
X42800Y119950D01*
X43000Y120250D01*
X43233Y120450D01*
X43500Y120500D01*
X43767Y120450D01*
X44000Y120250D01*
X44200Y119950D01*
X44333Y119600D01*
X44400Y119200D01*
Y118800D01*
X44333Y118400D01*
X44200Y118050D01*
X44000Y117750D01*
X43767Y117550D01*
X43500Y117500D01*
G01X43767Y118300D02*
X44167Y117500D01*
G01X46100D02*
Y120500D01*
X45700Y119900D01*
G01Y117500D02*
X46500D01*
G01X48700D02*
Y120500D01*
X48300Y119900D01*
G01Y117500D02*
X49100D01*
G01X46000Y106500D02*
X47500D01*
Y115500D01*
X42000D01*
G01X32000Y106500D02*
X30500D01*
Y115500D01*
X36000D01*
G01X40000Y106500D02*
X38000D01*
G01X37833Y140000D02*
Y143000D01*
X38667D01*
X38933Y142850D01*
X39100Y142650D01*
X39167Y142250D01*
X39100Y141850D01*
X38900Y141600D01*
X38667Y141450D01*
X37833D01*
G01X38667D02*
X39167Y140000D01*
G01X40467Y143000D02*
X41733D01*
X40467Y140000D01*
X41733D01*
G01X43700D02*
Y143000D01*
X43300Y142400D01*
G01Y140000D02*
X44100D01*
G01X60567Y25000D02*
Y28000D01*
X61833D01*
G01X61367Y26550D02*
X60567D01*
G01X64067Y26600D02*
X64200Y26750D01*
X64300Y27000D01*
X64367Y27350D01*
X64300Y27650D01*
X64167Y27850D01*
X63933Y28000D01*
X63033D01*
Y25000D01*
X64133D01*
X64367Y25200D01*
X64500Y25500D01*
X64567Y25850D01*
X64500Y26200D01*
X64300Y26500D01*
X64067Y26600D01*
X63033D01*
G01X57500Y23000D02*
Y11500D01*
X67500D01*
Y23500D01*
X57500D01*
Y23000D01*
G01X72833Y42500D02*
Y45500D01*
X73667D01*
X73933Y45350D01*
X74100Y45150D01*
X74167Y44750D01*
X74100Y44350D01*
X73900Y44100D01*
X73667Y43950D01*
X72833D01*
G01X73667D02*
X74167Y42500D01*
G01X75467Y43750D02*
X75700Y44100D01*
X75900Y44300D01*
X76167Y44400D01*
X76400Y44300D01*
X76567Y44100D01*
X76700Y43800D01*
X76733Y43450D01*
X76700Y43150D01*
X76567Y42850D01*
X76367Y42600D01*
X76133Y42500D01*
X75867Y42600D01*
X75633Y42900D01*
X75500Y43350D01*
X75467Y43850D01*
X75533Y44500D01*
X75633Y44850D01*
X75800Y45200D01*
X76033Y45450D01*
X76267Y45500D01*
X76500Y45400D01*
X76667Y45150D01*
G01X53500Y65000D02*
X53233Y65050D01*
X53000Y65250D01*
X52800Y65550D01*
X52667Y65900D01*
X52600Y66300D01*
Y66700D01*
X52667Y67100D01*
X52800Y67450D01*
X53000Y67750D01*
X53233Y67950D01*
X53500Y68000D01*
X53767Y67950D01*
X54000Y67750D01*
X54200Y67450D01*
X54333Y67100D01*
X54400Y66700D01*
Y66300D01*
X54333Y65900D01*
X54200Y65550D01*
X54000Y65250D01*
X53767Y65050D01*
X53500Y65000D01*
G01X53767Y65800D02*
X54167Y65000D01*
G01X55367Y65450D02*
X55567Y65200D01*
X55800Y65050D01*
X56100Y65000D01*
X56400Y65100D01*
X56633Y65300D01*
X56800Y65650D01*
X56833Y66050D01*
X56767Y66450D01*
X56600Y66700D01*
X56367Y66900D01*
X56133Y66950D01*
X55900Y66900D01*
X55600Y66700D01*
X55700Y68000D01*
X56600D01*
G01X65500Y58500D02*
X67000D01*
Y49500D01*
X61500D01*
G01X57500Y58500D02*
X59500D01*
G01X76000Y67500D02*
X75733Y67550D01*
X75500Y67750D01*
X75300Y68050D01*
X75167Y68400D01*
X75100Y68800D01*
Y69200D01*
X75167Y69600D01*
X75300Y69950D01*
X75500Y70250D01*
X75733Y70450D01*
X76000Y70500D01*
X76267Y70450D01*
X76500Y70250D01*
X76700Y69950D01*
X76833Y69600D01*
X76900Y69200D01*
Y68800D01*
X76833Y68400D01*
X76700Y68050D01*
X76500Y67750D01*
X76267Y67550D01*
X76000Y67500D01*
G01X76267Y68300D02*
X76667Y67500D01*
G01X78600D02*
X78833Y67550D01*
X79100Y67700D01*
X79267Y67950D01*
X79333Y68300D01*
X79267Y68650D01*
X79067Y68950D01*
X78767Y69100D01*
X78433D01*
X78233Y69200D01*
X78067Y69450D01*
X78000Y69800D01*
X78100Y70150D01*
X78333Y70400D01*
X78600Y70500D01*
X78867Y70400D01*
X79100Y70150D01*
X79200Y69800D01*
X79133Y69450D01*
X78967Y69200D01*
X78767Y69100D01*
X78433D01*
X78133Y68950D01*
X77933Y68650D01*
X77867Y68300D01*
X77933Y67950D01*
X78100Y67700D01*
X78367Y67550D01*
X78600Y67500D01*
G01X88500Y63500D02*
Y65000D01*
X79500D01*
Y59500D01*
G01X88500Y49500D02*
Y48000D01*
X79500D01*
Y53500D01*
G01X66000Y72500D02*
X65733Y72550D01*
X65500Y72750D01*
X65300Y73050D01*
X65167Y73400D01*
X65100Y73800D01*
Y74200D01*
X65167Y74600D01*
X65300Y74950D01*
X65500Y75250D01*
X65733Y75450D01*
X66000Y75500D01*
X66267Y75450D01*
X66500Y75250D01*
X66700Y74950D01*
X66833Y74600D01*
X66900Y74200D01*
Y73800D01*
X66833Y73400D01*
X66700Y73050D01*
X66500Y72750D01*
X66267Y72550D01*
X66000Y72500D01*
G01X66267Y73300D02*
X66667Y72500D01*
G01X68533D02*
X68600Y73150D01*
X68700Y73700D01*
X68833Y74200D01*
X69000Y74750D01*
X69267Y75500D01*
X67933D01*
G01X66000Y81500D02*
X67500D01*
Y90500D01*
X62000D01*
G01X52000Y81500D02*
X50500D01*
Y90500D01*
X56000D01*
G01X60000Y81500D02*
X58000D01*
G01X62833Y127500D02*
Y130500D01*
X63667D01*
X63933Y130350D01*
X64100Y130150D01*
X64167Y129750D01*
X64100Y129350D01*
X63900Y129100D01*
X63667Y128950D01*
X62833D01*
G01X63667D02*
X64167Y127500D01*
G01X66500D02*
Y130500D01*
X65267Y128350D01*
X66933D01*
G01X65500Y121000D02*
X67000D01*
Y112000D01*
X61500D01*
G01X57500Y121000D02*
X59500D01*
G01X107833Y37500D02*
Y40500D01*
X108633D01*
X108900Y40350D01*
X109100Y40000D01*
X109167Y39600D01*
X109100Y39200D01*
X108933Y38900D01*
X108633Y38750D01*
X107833D01*
G01X88500Y70000D02*
X88233Y70050D01*
X88000Y70250D01*
X87800Y70550D01*
X87667Y70900D01*
X87600Y71300D01*
Y71700D01*
X87667Y72100D01*
X87800Y72450D01*
X88000Y72750D01*
X88233Y72950D01*
X88500Y73000D01*
X88767Y72950D01*
X89000Y72750D01*
X89200Y72450D01*
X89333Y72100D01*
X89400Y71700D01*
Y71300D01*
X89333Y70900D01*
X89200Y70550D01*
X89000Y70250D01*
X88767Y70050D01*
X88500Y70000D01*
G01X88767Y70800D02*
X89167Y70000D01*
G01X90533Y70350D02*
X90767Y70100D01*
X91033Y70000D01*
X91300Y70100D01*
X91533Y70400D01*
X91700Y70850D01*
X91767Y71300D01*
Y71850D01*
X91700Y72300D01*
X91533Y72700D01*
X91333Y72900D01*
X91100Y73000D01*
X90833Y72900D01*
X90633Y72700D01*
X90500Y72400D01*
X90433Y72000D01*
X90500Y71650D01*
X90667Y71300D01*
X90867Y71100D01*
X91100Y71050D01*
X91367Y71150D01*
X91567Y71400D01*
X91767Y71850D01*
G01X88500Y57500D02*
Y55500D01*
G01X111000Y68500D02*
Y70000D01*
X102000D01*
Y64500D01*
G01X111000Y54500D02*
Y53000D01*
X102000D01*
Y58500D01*
G01X103500Y72500D02*
X103233Y72550D01*
X103000Y72750D01*
X102800Y73050D01*
X102667Y73400D01*
X102600Y73800D01*
Y74200D01*
X102667Y74600D01*
X102800Y74950D01*
X103000Y75250D01*
X103233Y75450D01*
X103500Y75500D01*
X103767Y75450D01*
X104000Y75250D01*
X104200Y74950D01*
X104333Y74600D01*
X104400Y74200D01*
Y73800D01*
X104333Y73400D01*
X104200Y73050D01*
X104000Y72750D01*
X103767Y72550D01*
X103500Y72500D01*
G01X103767Y73300D02*
X104167Y72500D01*
G01X106100D02*
Y75500D01*
X105700Y74900D01*
G01Y72500D02*
X106500D01*
G01X108067Y75000D02*
X108267Y75300D01*
X108500Y75450D01*
X108767Y75500D01*
X109100Y75400D01*
X109333Y75150D01*
X109400Y74850D01*
X109367Y74550D01*
X109233Y74300D01*
X108567Y73800D01*
X108267Y73450D01*
X108067Y72950D01*
X108000Y72500D01*
X109400D01*
G01X101567Y133000D02*
X102400Y130000D01*
X103233Y133000D01*
G01X105733Y132750D02*
X105533Y132900D01*
X105300Y133000D01*
X105033D01*
X104733Y132850D01*
X104500Y132600D01*
X104333Y132300D01*
X104200Y131800D01*
X104167Y131350D01*
X104233Y130900D01*
X104333Y130600D01*
X104533Y130300D01*
X104767Y130100D01*
X105000Y130000D01*
X105233D01*
X105467Y130100D01*
X105667Y130250D01*
X105833Y130450D01*
G01X108333Y132750D02*
X108133Y132900D01*
X107900Y133000D01*
X107633D01*
X107333Y132850D01*
X107100Y132600D01*
X106933Y132300D01*
X106800Y131800D01*
X106767Y131350D01*
X106833Y130900D01*
X106933Y130600D01*
X107133Y130300D01*
X107367Y130100D01*
X107600Y130000D01*
X107833D01*
X108067Y130100D01*
X108267Y130250D01*
X108433Y130450D01*
G01X82833Y135000D02*
Y138000D01*
X83667D01*
X83933Y137850D01*
X84100Y137650D01*
X84167Y137250D01*
X84100Y136850D01*
X83900Y136600D01*
X83667Y136450D01*
X82833D01*
G01X83667D02*
X84167Y135000D01*
G01X85367Y135450D02*
X85567Y135200D01*
X85800Y135050D01*
X86100Y135000D01*
X86400Y135100D01*
X86633Y135300D01*
X86800Y135650D01*
X86833Y136050D01*
X86767Y136450D01*
X86600Y136700D01*
X86367Y136900D01*
X86133Y136950D01*
X85900Y136900D01*
X85600Y136700D01*
X85700Y138000D01*
X86600D01*
G01X92500Y135000D02*
X116000D01*
Y150000D01*
X92000D01*
Y135000D01*
X92500D01*
G01X120333Y7500D02*
Y10500D01*
X121133D01*
X121400Y10350D01*
X121600Y10000D01*
X121667Y9600D01*
X121600Y9200D01*
X121433Y8900D01*
X121133Y8750D01*
X120333D01*
G01X123600Y7500D02*
X123333Y7550D01*
X123100Y7750D01*
X122900Y8050D01*
X122767Y8400D01*
X122700Y8800D01*
Y9200D01*
X122767Y9600D01*
X122900Y9950D01*
X123100Y10250D01*
X123333Y10450D01*
X123600Y10500D01*
X123867Y10450D01*
X124100Y10250D01*
X124300Y9950D01*
X124433Y9600D01*
X124500Y9200D01*
Y8800D01*
X124433Y8400D01*
X124300Y8050D01*
X124100Y7750D01*
X123867Y7550D01*
X123600Y7500D01*
G01X125467Y10500D02*
Y8350D01*
X125600Y7900D01*
X125867Y7600D01*
X126200Y7500D01*
X126533Y7600D01*
X126800Y7900D01*
X126933Y8350D01*
Y10500D01*
G01X128800D02*
Y7500D01*
G01X128033Y10500D02*
X129567D01*
G01X120333Y17500D02*
Y20500D01*
X121167D01*
X121433Y20350D01*
X121600Y20150D01*
X121667Y19750D01*
X121600Y19350D01*
X121400Y19100D01*
X121167Y18950D01*
X120333D01*
G01X121167D02*
X121667Y17500D01*
G01X123533D02*
X123600Y18150D01*
X123700Y18700D01*
X123833Y19200D01*
X124000Y19750D01*
X124267Y20500D01*
X122933D01*
G01X112833Y45000D02*
Y48000D01*
X113667D01*
X113933Y47850D01*
X114100Y47650D01*
X114167Y47250D01*
X114100Y46850D01*
X113900Y46600D01*
X113667Y46450D01*
X112833D01*
G01X113667D02*
X114167Y45000D01*
G01X116100D02*
X116333Y45050D01*
X116600Y45200D01*
X116767Y45450D01*
X116833Y45800D01*
X116767Y46150D01*
X116567Y46450D01*
X116267Y46600D01*
X115933D01*
X115733Y46700D01*
X115567Y46950D01*
X115500Y47300D01*
X115600Y47650D01*
X115833Y47900D01*
X116100Y48000D01*
X116367Y47900D01*
X116600Y47650D01*
X116700Y47300D01*
X116633Y46950D01*
X116467Y46700D01*
X116267Y46600D01*
X115933D01*
X115633Y46450D01*
X115433Y46150D01*
X115367Y45800D01*
X115433Y45450D01*
X115600Y45200D01*
X115867Y45050D01*
X116100Y45000D01*
G01X127833Y42500D02*
Y45500D01*
X128667D01*
X128933Y45350D01*
X129100Y45150D01*
X129167Y44750D01*
X129100Y44350D01*
X128900Y44100D01*
X128667Y43950D01*
X127833D01*
G01X128667D02*
X129167Y42500D01*
G01X130533Y42850D02*
X130767Y42600D01*
X131033Y42500D01*
X131300Y42600D01*
X131533Y42900D01*
X131700Y43350D01*
X131767Y43800D01*
Y44350D01*
X131700Y44800D01*
X131533Y45200D01*
X131333Y45400D01*
X131100Y45500D01*
X130833Y45400D01*
X130633Y45200D01*
X130500Y44900D01*
X130433Y44500D01*
X130500Y44150D01*
X130667Y43800D01*
X130867Y43600D01*
X131100Y43550D01*
X131367Y43650D01*
X131567Y43900D01*
X131767Y44350D01*
G01X132500Y75000D02*
Y51500D01*
X147500D01*
Y75500D01*
X132500D01*
Y75000D01*
G01X111000Y62500D02*
Y60500D01*
G01X132833Y87500D02*
Y90500D01*
X133667D01*
X133933Y90350D01*
X134100Y90150D01*
X134167Y89750D01*
X134100Y89350D01*
X133900Y89100D01*
X133667Y88950D01*
X132833D01*
G01X133667D02*
X134167Y87500D01*
G01X135433Y90500D02*
Y87500D01*
X136767D01*
G01X138700D02*
Y90500D01*
X138300Y89900D01*
G01Y87500D02*
X139100D01*
G01X124900Y72500D02*
X124633Y72550D01*
X124400Y72750D01*
X124200Y73050D01*
X124067Y73400D01*
X124000Y73800D01*
Y74200D01*
X124067Y74600D01*
X124200Y74950D01*
X124400Y75250D01*
X124633Y75450D01*
X124900Y75500D01*
X125167Y75450D01*
X125400Y75250D01*
X125600Y74950D01*
X125733Y74600D01*
X125800Y74200D01*
Y73800D01*
X125733Y73400D01*
X125600Y73050D01*
X125400Y72750D01*
X125167Y72550D01*
X124900Y72500D01*
G01X126767Y75500D02*
Y73350D01*
X126900Y72900D01*
X127167Y72600D01*
X127500Y72500D01*
X127833Y72600D01*
X128100Y72900D01*
X128233Y73350D01*
Y75500D01*
G01X130100D02*
Y72500D01*
G01X129333Y75500D02*
X130867D01*
G01X121000Y98500D02*
Y100000D01*
X112000D01*
Y94500D01*
G01X121000Y84500D02*
Y83000D01*
X112000D01*
Y88500D01*
G01X121000Y92500D02*
Y90500D01*
G01X130333Y130000D02*
Y133000D01*
X131167D01*
X131433Y132850D01*
X131600Y132650D01*
X131667Y132250D01*
X131600Y131850D01*
X131400Y131600D01*
X131167Y131450D01*
X130333D01*
G01X131167D02*
X131667Y130000D01*
G01X132933Y133000D02*
Y130000D01*
X134267D01*
G01X136600D02*
Y133000D01*
X135367Y130850D01*
X137033D01*
G01X132833Y102500D02*
Y105500D01*
X133667D01*
X133933Y105350D01*
X134100Y105150D01*
X134167Y104750D01*
X134100Y104350D01*
X133900Y104100D01*
X133667Y103950D01*
X132833D01*
G01X133667D02*
X134167Y102500D01*
G01X135433Y105500D02*
Y102500D01*
X136767D01*
G01X138067Y105000D02*
X138267Y105300D01*
X138500Y105450D01*
X138767Y105500D01*
X139100Y105400D01*
X139333Y105150D01*
X139400Y104850D01*
X139367Y104550D01*
X139233Y104300D01*
X138567Y103800D01*
X138267Y103450D01*
X138067Y102950D01*
X138000Y102500D01*
X139400D01*
G01X115333Y130000D02*
Y133000D01*
X116167D01*
X116433Y132850D01*
X116600Y132650D01*
X116667Y132250D01*
X116600Y131850D01*
X116400Y131600D01*
X116167Y131450D01*
X115333D01*
G01X116167D02*
X116667Y130000D01*
G01X118600D02*
Y133000D01*
X118200Y132400D01*
G01Y130000D02*
X119000D01*
G01X121200D02*
Y133000D01*
X120800Y132400D01*
G01Y130000D02*
X121600D01*
G01X118500Y102500D02*
X118233Y102550D01*
X118000Y102750D01*
X117800Y103050D01*
X117667Y103400D01*
X117600Y103800D01*
Y104200D01*
X117667Y104600D01*
X117800Y104950D01*
X118000Y105250D01*
X118233Y105450D01*
X118500Y105500D01*
X118767Y105450D01*
X119000Y105250D01*
X119200Y104950D01*
X119333Y104600D01*
X119400Y104200D01*
Y103800D01*
X119333Y103400D01*
X119200Y103050D01*
X119000Y102750D01*
X118767Y102550D01*
X118500Y102500D01*
G01X118767Y103300D02*
X119167Y102500D01*
G01X121100D02*
Y105500D01*
X120700Y104900D01*
G01Y102500D02*
X121500D01*
G01X123700Y105500D02*
X123433Y105400D01*
X123233Y105150D01*
X123100Y104850D01*
X123000Y104450D01*
X122967Y104000D01*
X123000Y103550D01*
X123100Y103150D01*
X123233Y102850D01*
X123433Y102600D01*
X123700Y102500D01*
X123967Y102600D01*
X124167Y102850D01*
X124300Y103150D01*
X124400Y103550D01*
X124433Y104000D01*
X124400Y104450D01*
X124300Y104850D01*
X124167Y105150D01*
X123967Y105400D01*
X123700Y105500D01*
G01X130333Y142500D02*
Y145500D01*
X131167D01*
X131433Y145350D01*
X131600Y145150D01*
X131667Y144750D01*
X131600Y144350D01*
X131400Y144100D01*
X131167Y143950D01*
X130333D01*
G01X131167D02*
X131667Y142500D01*
G01X132933Y145500D02*
Y142500D01*
X134267D01*
G01X135567Y143750D02*
X135800Y144100D01*
X136000Y144300D01*
X136267Y144400D01*
X136500Y144300D01*
X136667Y144100D01*
X136800Y143800D01*
X136833Y143450D01*
X136800Y143150D01*
X136667Y142850D01*
X136467Y142600D01*
X136233Y142500D01*
X135967Y142600D01*
X135733Y142900D01*
X135600Y143350D01*
X135567Y143850D01*
X135633Y144500D01*
X135733Y144850D01*
X135900Y145200D01*
X136133Y145450D01*
X136367Y145500D01*
X136600Y145400D01*
X136767Y145150D01*
G01X135333Y147500D02*
Y150500D01*
X136167D01*
X136433Y150350D01*
X136600Y150150D01*
X136667Y149750D01*
X136600Y149350D01*
X136400Y149100D01*
X136167Y148950D01*
X135333D01*
G01X136167D02*
X136667Y147500D01*
G01X137933Y150500D02*
Y147500D01*
X139267D01*
G01X140467Y147950D02*
X140667Y147700D01*
X140900Y147550D01*
X141200Y147500D01*
X141500Y147600D01*
X141733Y147800D01*
X141900Y148150D01*
X141933Y148550D01*
X141867Y148950D01*
X141700Y149200D01*
X141467Y149400D01*
X141233Y149450D01*
X141000Y149400D01*
X140700Y149200D01*
X140800Y150500D01*
X141700D01*
G01X142833Y117500D02*
Y120500D01*
X143667D01*
X143933Y120350D01*
X144100Y120150D01*
X144167Y119750D01*
X144100Y119350D01*
X143900Y119100D01*
X143667Y118950D01*
X142833D01*
G01X143667D02*
X144167Y117500D01*
G01X145433Y120500D02*
Y117500D01*
X146767D01*
G01X147967Y118100D02*
X148167Y117750D01*
X148433Y117550D01*
X148733Y117500D01*
X149000Y117550D01*
X149267Y117800D01*
X149433Y118100D01*
X149467Y118400D01*
X149400Y118750D01*
X149167Y119000D01*
X148933Y119100D01*
X148633D01*
G01X148933D02*
X149133Y119250D01*
X149300Y119500D01*
X149367Y119800D01*
X149300Y120100D01*
X149133Y120350D01*
X148833Y120500D01*
X148533Y120450D01*
X148233Y120250D01*
G54D12*
G01X102047Y98248D02*
Y123839D01*
X76063D01*
Y89980D01*
X75276Y89193D01*
Y75020D01*
X102835D01*
Y89193D01*
X102047Y89980D01*
Y98248D01*
G01X100000Y31122D02*
X91142D01*
G01X95472Y35650D02*
Y26594D01*
G01X101378Y31122D02*
G03X95472Y37028I-5906J0D01*
G03X89567Y30925I1J-5909D01*
G03X95472Y25217I5899J194D01*
G03X101378Y31122I1J5905D01*
G01X96457Y21280D02*
X94488D01*
G01X89961Y40965D02*
X85630D01*
Y21280D01*
X86811D01*
G01X100984Y40965D02*
X105315D01*
Y21280D01*
X104134D01*
G01X135000Y21378D02*
X143858D01*
G01X139528Y16850D02*
Y25906D01*
G01X133622Y21378D02*
G03X139528Y15472I5906J0D01*
G03X145433Y21575I-1J5909D01*
G03X139528Y27283I-5899J-194D01*
G03X133622Y21378I-1J-5905D01*
G01X138543Y31220D02*
X140512D01*
G01X134016Y11535D02*
X129685D01*
Y31220D01*
X130866D01*
G01X145039Y11535D02*
X149370D01*
Y31220D01*
X148189D01*
M02*
