G04 ================== begin FILE IDENTIFICATION RECORD ==================*
G04 Layout Name:  P1_STAB_TENS.brd*
G04 Film Name:    TOP*
G04 File Format:  Gerber RS274X*
G04 File Origin:  Cadence Allegro 16.6-2015-S059*
G04 Origin Date:  Tue Dec 03 23:12:03 2024*
G04 *
G04 Layer:  ETCH/TOP*
G04 Layer:  PIN/TOP*
G04 Layer:  VIA CLASS/TOP*
G04 *
G04 Offset:    (0.00 0.00)*
G04 Mirror:    No*
G04 Mode:      Positive*
G04 Rotation:  0*
G04 FullContactRelief:  No*
G04 UndefLineWidth:     0.00*
G04 ================== end FILE IDENTIFICATION RECORD ====================*
%FSLAX25Y25*MOIN*%
%IR0*IPPOS*OFA0.00000B0.00000*MIA0B0*SFA1.00000B1.00000*%
%ADD21R,.12X.08*%
%ADD20R,.08X.12*%
%ADD13C,.03*%
%ADD10C,.04*%
%ADD11R,.05X.05*%
%ADD18R,.05118X.05118*%
%ADD17R,.06299X.11811*%
%ADD15R,.036X.05*%
%ADD14R,.06X.08*%
%ADD12R,.05X.036*%
%ADD16R,.22835X.24409*%
%ADD19R,.07874X.05118*%
%ADD22C,.018*%
%ADD26C,.07878*%
%ADD25R,.10804X.14804*%
%ADD24R,.14804X.10804*%
%ADD23R,.07804X.07804*%
G75*
%LPD*%
G75*
G36*
G01X7500Y5000D02*
X5000Y7500D01*
Y150000D01*
X7500Y152500D01*
X150000D01*
X152500Y150000D01*
Y7500D01*
X150000Y5000D01*
X7500D01*
G37*
%LPC*%
G75*
G36*
G01X126402Y46998D02*
X118598D01*
Y54802D01*
X120198D01*
Y64153D01*
X128347Y72302D01*
X132598D01*
Y75402D01*
X136978D01*
G03X137261Y76084I0J400D01*
G01X134747Y78598D01*
X130198D01*
Y80198D01*
X128347D01*
X124247Y84298D01*
X122802D01*
Y81347D01*
X119653Y78198D01*
X105847D01*
X103847Y80198D01*
X102543D01*
Y75193D01*
X93441D01*
Y89807D01*
X102698D01*
Y123453D01*
X106547Y127302D01*
X110198D01*
Y128902D01*
X118002D01*
Y122302D01*
X118598D01*
Y128902D01*
X126402D01*
Y121098D01*
X124802D01*
Y120847D01*
X121653Y117698D01*
X118453D01*
X117839Y117084D01*
G03X118002Y116420I283J-283D01*
G01Y108598D01*
X110198D01*
Y116402D01*
X112698D01*
Y118453D01*
X114661Y120416D01*
G03X114378Y121098I-283J282D01*
G01X110198D01*
Y122698D01*
X108453D01*
X107302Y121547D01*
Y104871D01*
G03X107980Y104583I400J-1D01*
G02X112868Y102941I2020J-2083D01*
G01X112878Y102877D01*
X114802Y100953D01*
Y94502D01*
X116598D01*
Y98402D01*
X121206D01*
G03X121489Y99084I0J400D01*
G01X120198Y100375D01*
Y108598D01*
X118598D01*
Y116402D01*
X126402D01*
Y108598D01*
X124802D01*
Y102281D01*
X128674Y98409D01*
Y86381D01*
X129516Y85539D01*
G03X130198Y85822I282J283D01*
G01Y86402D01*
X138002D01*
Y81853D01*
X138257Y81598D01*
G03X138598Y81739I141J141D01*
G01Y86402D01*
X140198D01*
Y87247D01*
X139747Y87698D01*
X135847D01*
X131798Y91747D01*
Y93598D01*
X130198D01*
Y101402D01*
X138002D01*
Y93598D01*
X137422D01*
G03X137139Y92916I0J-400D01*
G01X137753Y92302D01*
X141653D01*
X144802Y89153D01*
Y86402D01*
X146402D01*
Y78598D01*
X142222D01*
G03X141939Y77916I0J-400D01*
G01X142302Y77553D01*
Y75402D01*
X147402D01*
Y64598D01*
X132598D01*
Y67698D01*
X130253D01*
X124802Y62247D01*
Y54802D01*
X126402D01*
Y46998D01*
G37*
G36*
G01X94906Y23960D02*
Y16040D01*
X86984D01*
Y17698D01*
X78347D01*
X75198Y20847D01*
Y26098D01*
X73598D01*
Y33902D01*
X81402D01*
Y26098D01*
X79802D01*
Y22753D01*
X80253Y22302D01*
X86984D01*
Y23960D01*
X94906D01*
G37*
G36*
G01X103960Y17698D02*
Y16040D01*
X96040D01*
Y23960D01*
X103960D01*
Y22302D01*
X107647D01*
X109247Y23902D01*
X111098D01*
Y25502D01*
X118902D01*
Y17698D01*
X111098D01*
Y18278D01*
G03X110416Y18561I-400J0D01*
G01X109553Y17698D01*
X103960D01*
G37*
G36*
G01X138960Y36460D02*
Y28540D01*
X131040D01*
Y30198D01*
X126547D01*
X120198Y36547D01*
Y38598D01*
X118598D01*
Y46402D01*
X126402D01*
Y38598D01*
X125622D01*
G03X125339Y37916I0J-400D01*
G01X128453Y34802D01*
X131040D01*
Y36460D01*
X138960D01*
G37*
G36*
G01X148016D02*
Y28540D01*
X140094D01*
Y36460D01*
X142324D01*
Y40579D01*
X142502Y40757D01*
G03X142361Y41098I-141J141D01*
G01X141998D01*
Y48902D01*
X149802D01*
Y41098D01*
X148202D01*
Y39947D01*
X146928Y38673D01*
Y36460D01*
X148016D01*
G37*
G36*
G01X146402Y101402D02*
Y93598D01*
X138598D01*
Y101402D01*
X140198D01*
Y103253D01*
X141098Y104153D01*
Y108598D01*
X139498D01*
Y116402D01*
X147302D01*
Y108598D01*
X145702D01*
Y102247D01*
X145539Y102084D01*
G03X145822Y101402I283J-282D01*
G01X146402D01*
G37*
G36*
G01X138902Y116402D02*
Y108598D01*
X131098D01*
Y116402D01*
X131678D01*
G03X131961Y117084I0J400D01*
G01X131798Y117247D01*
Y121098D01*
X130198D01*
Y128902D01*
X138002D01*
Y121098D01*
X136402D01*
Y119153D01*
X137302Y118253D01*
Y116402D01*
X138902D01*
G37*
G36*
G01X146402Y122698D02*
Y121098D01*
X138598D01*
Y128902D01*
X145198D01*
Y132698D01*
X143598D01*
Y140502D01*
X151402D01*
Y132698D01*
X149802D01*
Y125847D01*
X146653Y122698D01*
X146402D01*
G37*
G36*
G01X151402Y148902D02*
Y141098D01*
X143598D01*
Y142698D01*
X134047D01*
X133147Y143598D01*
X128902D01*
Y141998D01*
X121098D01*
Y149802D01*
X128902D01*
Y148202D01*
X135053D01*
X135953Y147302D01*
X143598D01*
Y148902D01*
X151402D01*
G37*
G36*
G01X144866Y6296D02*
X134190D01*
Y7954D01*
X76292D01*
X69048Y15198D01*
X66902D01*
Y12098D01*
X58098D01*
Y22902D01*
X60198D01*
Y30953D01*
X65198Y35953D01*
Y54098D01*
X61902D01*
Y46098D01*
X61002D01*
Y42747D01*
X49802Y31547D01*
Y27902D01*
X51902D01*
Y17098D01*
X43098D01*
Y27902D01*
X45198D01*
Y33453D01*
X47995Y36250D01*
X44623Y39622D01*
X44559Y39632D01*
G02X47868Y42941I441J2868D01*
G01X47878Y42877D01*
X51250Y39505D01*
X56398Y44653D01*
Y46098D01*
X55498D01*
Y54098D01*
X51598D01*
Y61920D01*
G03X51761Y62584I-120J381D01*
G01X50397Y63948D01*
X44802D01*
Y59402D01*
X46402D01*
Y52998D01*
X38402D01*
Y49098D01*
X36802D01*
Y47153D01*
X37302Y46653D01*
Y44802D01*
X38902D01*
Y36998D01*
X31098D01*
Y44802D01*
X32161D01*
G03X32302Y45143I0J200D01*
G01X32198Y45247D01*
Y49098D01*
X30598D01*
Y55502D01*
X38598D01*
Y56798D01*
X30598D01*
Y57698D01*
X28747D01*
X25047Y61398D01*
X23902D01*
Y60498D01*
X15902D01*
Y56598D01*
X14302D01*
Y49653D01*
X14802Y49153D01*
Y47302D01*
X16402D01*
Y39498D01*
X8598D01*
Y47302D01*
X9661D01*
G03X9802Y47643I0J200D01*
G01X9698Y47747D01*
Y56598D01*
X8098D01*
Y63002D01*
X16098D01*
Y64298D01*
X8098D01*
Y70702D01*
X9698D01*
Y86598D01*
X8098D01*
Y93002D01*
X16098D01*
Y94298D01*
X8098D01*
Y100702D01*
X9698D01*
Y106742D01*
X9692Y106767D01*
G02Y108233I2808J733D01*
G01X9698Y108258D01*
Y108453D01*
X9794Y108549D01*
X9809Y108586D01*
G02X10198Y109268I2692J-1084D01*
G01Y115598D01*
X8598D01*
Y122002D01*
X10198D01*
Y132753D01*
X13861Y136416D01*
G03X13578Y137098I-283J282D01*
G01X13098D01*
Y147902D01*
X21902D01*
Y145822D01*
G03X22584Y145539I400J0D01*
G01X24347Y147302D01*
X28598D01*
Y148902D01*
X36402D01*
Y147302D01*
X46098D01*
Y148902D01*
X53902D01*
Y141098D01*
X46098D01*
Y142698D01*
X36402D01*
Y141098D01*
X28598D01*
Y142698D01*
X26253D01*
X23753Y140198D01*
X21902D01*
Y137098D01*
X19802D01*
Y135847D01*
X14802Y130847D01*
Y122002D01*
X16598D01*
Y125902D01*
X24402D01*
Y119498D01*
X16402D01*
Y118202D01*
X24402D01*
Y111798D01*
X16598D01*
Y115598D01*
X14802D01*
Y109268D01*
G02X14302Y105225I-2302J-1768D01*
G01Y100702D01*
X15902D01*
Y96902D01*
X17698D01*
Y100506D01*
X25500Y108308D01*
Y116255D01*
X32161Y122916D01*
G03X31878Y123598I-283J282D01*
G01X31098D01*
Y131402D01*
X38902D01*
Y123639D01*
G03X39243Y123498I200J0D01*
G01X39498Y123753D01*
Y131402D01*
X47698D01*
Y132698D01*
X46098D01*
Y134298D01*
X36402D01*
Y132698D01*
X28598D01*
Y140502D01*
X36402D01*
Y138902D01*
X46098D01*
Y140502D01*
X53902D01*
Y139922D01*
G03X54584Y139639I400J0D01*
G01X55198Y140253D01*
Y144153D01*
X59247Y148202D01*
X61098D01*
Y149802D01*
X68902D01*
Y148202D01*
X73598D01*
Y149802D01*
X81402D01*
Y148202D01*
X85053D01*
X88453Y144802D01*
X92098D01*
Y149902D01*
X102902D01*
Y135098D01*
X99802D01*
Y133247D01*
X91278Y124723D01*
Y124413D01*
X101795D01*
Y97201D01*
X76157D01*
Y108119D01*
G03X75816Y108261I-200J0D01*
G01X75608Y108054D01*
Y89807D01*
X84551D01*
Y75193D01*
X82302D01*
Y73453D01*
X90302Y65453D01*
Y63402D01*
X91902D01*
Y56998D01*
X83902D01*
Y55702D01*
X91902D01*
Y54802D01*
X99047D01*
X100198Y55953D01*
Y58098D01*
X98598D01*
Y64502D01*
X106598D01*
Y68402D01*
X114402D01*
Y61998D01*
X106402D01*
Y60702D01*
X114402D01*
Y54298D01*
X112802D01*
Y50082D01*
X102662Y39942D01*
X100810D01*
Y38284D01*
X90134D01*
Y46323D01*
X90097Y46374D01*
G02X90064Y46432I330J226D01*
G01X90049Y46463D01*
X89883Y46629D01*
X87878Y44623D01*
X87868Y44559D01*
G02X84559Y47868I-2868J441D01*
G01X84623Y47878D01*
X85698Y48953D01*
Y49298D01*
X84098D01*
Y53098D01*
X79822D01*
G03X79539Y52416I0J-400D01*
G01X79802Y52153D01*
Y42302D01*
X81402D01*
Y34498D01*
X73598D01*
Y42302D01*
X75198D01*
Y50247D01*
X70484Y54961D01*
G03X69802Y54678I-282J-283D01*
G01Y34047D01*
X64802Y29047D01*
Y22902D01*
X66902D01*
Y19802D01*
X70954D01*
X78198Y12558D01*
X134190D01*
Y14216D01*
X144866D01*
Y6296D01*
G37*
G54D26*
X137500Y137500D03*
X20000Y20000D03*
G54D25*
X109500Y142500D03*
G54D24*
X140000Y58000D03*
G54D23*
X125000Y137500D03*
X137500Y45000D03*
X115000Y30000D03*
X35000Y32500D03*
X12500Y35000D03*
%LPD*%
G75*
G54D10*
X20000Y20000D03*
X137500Y137500D03*
G54D11*
X12500Y35000D03*
Y43400D03*
X35000Y32500D03*
Y40900D03*
Y127500D03*
X43400D03*
X50000Y145000D03*
Y136600D03*
X32500Y145000D03*
Y136600D03*
X77500Y30000D03*
Y38400D03*
X65000Y137500D03*
Y145900D03*
X77500Y137500D03*
Y145900D03*
X122500Y42500D03*
X115000Y30000D03*
Y21600D03*
X122500Y50900D03*
X137500Y45000D03*
X142500Y97500D03*
X134100D03*
X142500Y82500D03*
X134100D03*
X142500Y125000D03*
X134100D03*
X135000Y112500D03*
X143400D03*
X122500D03*
X114100D03*
X122500Y125000D03*
X114100D03*
X125000Y137500D03*
Y145900D03*
X145900Y45000D03*
X147500Y145000D03*
Y136600D03*
G54D20*
X109500Y142500D03*
X97500D03*
G54D12*
X12000Y67500D03*
Y59800D03*
X20000Y63700D03*
X12000Y97500D03*
Y89800D03*
X20000Y93700D03*
X20500Y115000D03*
Y122700D03*
X12500Y118800D03*
X34500Y60000D03*
Y52300D03*
X42500Y56200D03*
X34500Y87500D03*
Y79800D03*
X42500Y83700D03*
X80000Y56300D03*
X88000Y52500D03*
Y60200D03*
X110500Y57500D03*
Y65200D03*
X102500Y61300D03*
X112500Y91300D03*
X120500Y87500D03*
Y95200D03*
G54D21*
X140000Y58000D03*
Y70000D03*
G54D22*
G01X12500Y30898D02*
Y35000D01*
G01X8398D02*
X12500D01*
G01D02*
X16602D01*
G01X20000Y63700D02*
X26000D01*
X29700Y60000D01*
X34500D01*
G01X12500Y77500D02*
X12000Y77000D01*
Y67500D01*
G01X12500Y77500D02*
X17500D01*
X20000Y75000D01*
Y63700D01*
G01X12000Y59800D02*
Y48700D01*
X12500Y48200D01*
Y43400D01*
G01X12000Y89800D02*
Y78000D01*
X12500Y77500D01*
G01X20000Y93700D02*
Y99553D01*
X27802Y107355D01*
Y115302D01*
X35000Y122500D01*
Y127500D01*
G01X12500Y108000D02*
X12000Y107500D01*
Y97500D01*
G01X20500Y111598D02*
Y115000D01*
G01D02*
Y118402D01*
G01X16398Y115000D02*
X20500D01*
G01D02*
X24602D01*
G01X12500Y118800D02*
Y108000D01*
G01Y118800D02*
Y131800D01*
X17500Y136800D01*
Y142500D01*
G01X12500Y108000D02*
Y107500D01*
G01X32500Y145000D02*
X25300D01*
X22800Y142500D01*
X17500D01*
G01X35000Y28398D02*
Y32500D01*
G01X30898D02*
X35000D01*
G01D02*
X39102D01*
G01X47500Y22500D02*
Y32500D01*
X51250Y36250D01*
G01D02*
X58700Y43700D01*
Y50000D01*
G01X51250Y36250D02*
X45000Y42500D01*
G01X34500Y79800D02*
Y74250D01*
X42500Y66250D01*
G01D02*
Y56200D01*
G01Y66250D02*
X51350D01*
X54800Y62800D01*
Y58000D01*
G01X34500Y52300D02*
Y46200D01*
X35000Y45700D01*
Y40900D01*
G01X42500Y83700D02*
Y92500D01*
X55000Y105000D01*
X58700D01*
G01X42500Y83700D02*
Y75000D01*
X45000Y72500D01*
X52500D01*
X55000Y75000D01*
Y82000D01*
G01X42700Y107000D02*
Y100200D01*
G01X34500Y87500D02*
Y92000D01*
X35000Y92500D01*
Y100000D01*
G01X27500D02*
X35000D01*
G01D02*
Y107000D01*
G01X50000Y136600D02*
Y129300D01*
X48200Y127500D01*
X43400D01*
G01D02*
Y124400D01*
X38800Y119800D01*
Y115000D01*
G01X32500Y136600D02*
X50000D01*
G01D02*
X54800D01*
X57500Y139300D01*
Y143200D01*
X60200Y145900D01*
X65000D01*
G01X32500Y145000D02*
X50000D01*
G01X62500Y17500D02*
X70001D01*
X77245Y10256D01*
X139528D01*
G01X62500Y17500D02*
Y30000D01*
X67500Y35000D01*
Y56200D01*
X65700Y58000D01*
X62500D01*
G01X77500Y30000D02*
Y21800D01*
X79300Y20000D01*
X90945D01*
G01X60000Y72500D02*
Y68700D01*
X77500Y51200D01*
Y38400D01*
G01X80000Y56300D02*
Y63307D01*
X73307Y70000D01*
Y109007D01*
X75107Y110807D01*
X88976D01*
G01X65000Y100000D02*
X62500D01*
X58800Y96300D01*
Y90000D01*
G01X77500Y137500D02*
Y130000D01*
X70107Y122607D01*
Y85107D01*
X67000Y82000D01*
X62700D01*
G01X88000Y60200D02*
Y64500D01*
X80000Y72500D01*
Y82500D01*
G01X58700Y105000D02*
Y112500D01*
G01Y105000D02*
X63200D01*
X65000Y106800D01*
Y111907D01*
X62800Y114107D01*
Y120200D01*
X62500Y120500D01*
G01X65000Y137500D02*
Y131800D01*
X63200Y130000D01*
X59500D01*
X54800Y125300D01*
Y120500D01*
G01X97500Y142500D02*
X87500D01*
X84100Y145900D01*
X77500D01*
G01D02*
X65000D01*
G01X110898Y30000D02*
X115000D01*
G01X100000Y20000D02*
X108600D01*
X110200Y21600D01*
X115000D01*
G01X110500Y61798D02*
Y65200D01*
G01D02*
Y68602D01*
G01X106398Y65200D02*
X110500D01*
G01D02*
X114602D01*
G01X88000Y52500D02*
X100000D01*
X102500Y55000D01*
Y61300D01*
G01X88000Y52500D02*
Y48000D01*
X85000Y45000D01*
G01X110500Y57500D02*
Y51035D01*
X101709Y42244D01*
X95472D01*
G01X120500Y87500D02*
Y82300D01*
X118700Y80500D01*
X106800D01*
X105000Y82300D01*
Y82500D01*
G01D02*
X97992D01*
G01X105000D02*
Y122500D01*
X107500Y125000D01*
X114100D01*
G01X112500Y91300D02*
Y100000D01*
X110000Y102500D01*
G01X88976Y110807D02*
Y125676D01*
X97500Y134200D01*
Y142500D01*
G01X109500Y134898D02*
Y142500D01*
G01D02*
Y150102D01*
G01X103898Y142500D02*
X109500D01*
G01D02*
X115102D01*
G01X137500Y40898D02*
Y45000D01*
G01X115000Y30000D02*
Y34102D01*
G01Y30000D02*
X119102D01*
G01X135000Y32500D02*
X127500D01*
X122500Y37500D01*
Y42500D01*
G01X137500Y45000D02*
Y49102D01*
G01X133398Y45000D02*
X137500D01*
G01X140000Y52398D02*
Y58000D01*
G01D02*
Y63602D01*
G01X132398Y58000D02*
X140000D01*
G01D02*
X147602D01*
G01X122500Y50900D02*
Y63200D01*
X129300Y70000D01*
X140000D01*
G01X134100Y82500D02*
X140000Y76600D01*
Y70000D01*
G01X142500Y82500D02*
Y88200D01*
X140700Y90000D01*
X136800D01*
X134100Y92700D01*
Y97500D01*
G01X126372Y95200D02*
Y97456D01*
X122500Y101328D01*
Y112500D01*
G01X120500Y95200D02*
X126372D01*
G01D02*
Y85428D01*
X129300Y82500D01*
X134100D01*
G01X114100Y112500D02*
X115000Y113400D01*
Y117500D01*
X117500Y120000D01*
X120700D01*
X122500Y121800D01*
Y125000D01*
G01X134100D02*
Y118200D01*
X135000Y117300D01*
Y112500D01*
G01X125000Y133398D02*
Y137500D01*
G01X120898D02*
X125000D01*
G01D02*
X129102D01*
G01X147500Y145000D02*
X135000D01*
X134100Y145900D01*
X125000D01*
G01X144055Y32500D02*
X144626Y33071D01*
Y39626D01*
X145900Y40900D01*
Y45000D01*
G01X143400Y112500D02*
Y103200D01*
X142500Y102300D01*
Y97500D01*
G01Y125000D02*
X145700D01*
X147500Y126800D01*
Y136600D01*
G54D13*
X12500Y107500D03*
X45000Y42500D03*
X42700Y100200D03*
X27500Y100000D03*
X65000D03*
X60000Y72500D03*
X85000Y45000D03*
X110000Y102500D03*
G54D14*
X17500Y142500D03*
X47500Y22500D03*
X62500Y17500D03*
G54D15*
X35000Y107000D03*
X42700D03*
X38800Y115000D03*
X62500Y58000D03*
X54800D03*
X58700Y50000D03*
X55000Y82000D03*
X62700D03*
X58800Y90000D03*
X62500Y120500D03*
X54800D03*
X58700Y112500D03*
G54D16*
X88976Y110807D03*
G54D17*
X80000Y82500D03*
X97992D03*
G54D18*
X90945Y20000D03*
X100000D03*
X135000Y32500D03*
X144055D03*
G54D19*
X95472Y42244D03*
X139528Y10256D03*
M02*
